<?xml version="1.0" encoding="UTF-8" standalone="no"?>
<svg
   xmlns:dc="http://purl.org/dc/elements/1.1/"
   xmlns:cc="http://creativecommons.org/ns#"
   xmlns:rdf="http://www.w3.org/1999/02/22-rdf-syntax-ns#"
   xmlns:svg="http://www.w3.org/2000/svg"
   xmlns="http://www.w3.org/2000/svg"
   viewBox="0 0 1056 816"
   height="816"
   width="1056"
   xml:space="preserve"
   id="svg2"
   version="1.1"><metadata
     id="metadata8"><rdf:RDF><cc:Work
         rdf:about=""><dc:format>image/svg+xml</dc:format><dc:type
           rdf:resource="http://purl.org/dc/dcmitype/StillImage" /></cc:Work></rdf:RDF></metadata><defs
     id="defs6"><clipPath
       id="clipPath18"
       clipPathUnits="userSpaceOnUse"><path
         id="path16"
         d="M 0,612 H 792 V 0 H 0 Z" /></clipPath><clipPath
       id="clipPath28"
       clipPathUnits="userSpaceOnUse"><path
         id="path26"
         d="M -158.169,71.3218 H 158.169 V -71.3223 h -316.338 z" /></clipPath><clipPath
       id="clipPath60"
       clipPathUnits="userSpaceOnUse"><path
         id="path58"
         d="M -158.169,71.3218 H 158.169 V -71.3223 h -316.338 z" /></clipPath><clipPath
       id="clipPath92"
       clipPathUnits="userSpaceOnUse"><path
         id="path90"
         d="M -158.169,71.3218 H 158.169 V -71.3223 h -316.338 z" /></clipPath><clipPath
       id="clipPath124"
       clipPathUnits="userSpaceOnUse"><path
         id="path122"
         d="M -158.169,71.3218 H 158.169 V -71.3223 h -316.338 z" /></clipPath><clipPath
       id="clipPath156"
       clipPathUnits="userSpaceOnUse"><path
         id="path154"
         d="M -158.169,71.3218 H 158.169 V -71.3223 h -316.338 z" /></clipPath><clipPath
       id="clipPath188"
       clipPathUnits="userSpaceOnUse"><path
         id="path186"
         d="M -158.169,71.3218 H 158.169 V -71.3223 h -316.338 z" /></clipPath><clipPath
       id="clipPath220"
       clipPathUnits="userSpaceOnUse"><path
         id="path218"
         d="M -158.169,71.3218 H 158.169 V -71.3223 h -316.338 z" /></clipPath><clipPath
       id="clipPath252"
       clipPathUnits="userSpaceOnUse"><path
         id="path250"
         d="M -158.169,71.3218 H 158.169 V -71.3223 h -316.338 z" /></clipPath></defs><g
     transform="matrix(1.3333333,0,0,-1.3333333,0,816)"
     id="g10"><g
       id="g12"><g
         clip-path="url(#clipPath18)"
         id="g14"><g
           transform="matrix(1,0,0,-1,237.25415,142.6438)"
           id="g20"><g
             id="g22"><g
               clip-path="url(#clipPath28)"
               id="g24"><text
                 id="text50"
                 style="font-variant:normal;font-weight:normal;font-stretch:normal;font-size:12px;font-family:'Myriad Pro';-inkscape-font-specification:MyriadPro-Regular;writing-mode:lr-tb;fill:#2b2b2a;fill-opacity:1;fill-rule:nonzero;stroke:none"
                 transform="translate(-158.1694,-61.2783)"><tspan
                   id="tspan30"
                   y="0"
                   x="0 5.9039998 10.656 14.556 21.143999 23.688 29.700001 34.452 36.995998 43.608002 50.268002 52.812 58.596001 62.400002 67.776001 74.435997 77.244003 82.896004 89.484001 92.028 98.795998 104.808 107.352 114.552 121.32 127.908 134.73599 140.748 145.776 148.32001 151.308 154.14 156.972 163.584 168.336 172.308 176.172 181.908 185.808 192.396 196.32001 201.34801 203.892 210.60001 217.21201 222.996 226.8 233.56799 239.35201 246.12">Esto es un archivo de Adobe® Illustrator® guardado</tspan><tspan
                   id="tspan32"
                   y="14.4"
                   x="0 4.7519999 7.5599999 14.22 16.764 22.068001 28.656 35.268002 39.167999 45.18 51.84 54.647999 61.416 68.003998 70.547997 76.559998 83.220001 85.764 92.148003 100.14 104.82">sin contenido en PDF.</tspan><tspan
                   id="tspan34"
                   y="28.799999"
                   x="0 6.072 11.856 15.72 21.504 24.048 29.351999 35.939999 38.771999 45.360001 50.736 56.52 60.444 62.987999 69.575996 72.120003 77.903999 84.732002 88.704002 91.512001 95.435997 97.980003 103.992 108.744 112.644 118.656 121.2 126.984 130.7868 136.1628 142.8228 145.6308 151.28281 157.8708 160.41479 166.4268 173.08681 175.6308 182.2188 186.1908 190.05479 195.83881">Para colocar o abrir este archivo en otras</tspan><tspan
                   id="tspan36"
                   y="43.200001"
                   x="0 5.7839999 12.612 15.444 18.252001 23.628 29.412001 34.787998 37.596001 44.183998 50.844002 56.855999 61.476002 63.959999 66.503998 73.272003 79.283997 86.112 92.124001 94.667999 100.32 106.908 109.74 115.3908 121.4028 125.3268 127.8708 133.6548 136.19881 142.9068 149.5188 155.3028 159.1068 165.8748 171.6588 175.6308 178.4628 185.0508 187.5948 193.6068">aplicaciones, debe volver a guardarlo en</tspan><tspan
                   id="tspan38"
                   y="57.599998"
                   x="0 7.1999998 13.968 20.556 27.384001 33.396 35.939999 38.929199 41.7612 44.593201 51.2052 55.957199 59.929199 63.793201 69.529198 73.429199 80.017197 83.9412 86.485199 91.7892 98.377197 105.0372 107.5812 110.4132 116.1972 118.7412 125.3292 132.1572 137.5332 140.3412 146.9292 153.5892 156.13319 163.05721 166.86121 172.8732 178.6572 182.58121 185.1252 190.90919 194.7132 200.0892 206.74921 209.55721 215.2092 221.7972 224.3412 230.7252 238.71719">Adobe Illustrator con la opción Crear archivo PDF</tspan><tspan
                   id="tspan40"
                   y="72"
                   x="0 5.3039999 11.892 21.9 28.728001 34.464001 38.436001 41.243999 48.071999 50.903999 56.916 59.459999 65.244003 70.776001 74.748001 77.556 83.279999 89.064003 95.832001 101.616 104.1 106.644 112.548 117.3 121.272">compatible activada. Esta</tspan><tspan
                   id="tspan42"
                   y="86.400002"
                   x="0 6.5879998 13.416 18.792 21.6 28.188 34.848 37.391998 42.144001 48.155998 50.700001 56.712002 63.372002 68.748001 75.360001 81.372002 87.984001 91.956001 95.82 101.604 104.148 110.16 116.82 119.364 125.376 128.20799 130.752 136.12801 142.74001 148.524 155.29201 159.09599 165.68401 168.228 174.996 181.008 183.552 190.32001 193.12801 198.912 201.744 208.332 215.03999 221.62801 224.172 230.94 236.952 239.496 242.328 248.112 252.864 255.408 261.996 268.82401 274.20001 277.008 283.59601 290.25601 296.26801 301.01999 303.564 310.332">opción se encuentra en el cuadro de diálogo de las opciones de</tspan><tspan
                   id="tspan44"
                   y="100.8"
                   x="0 3.348 9.9359999 13.908 23.916 29.652 33.551998 40.139999 42.683998 49.344002 55.080002 59.051998 61.860001 67.510803 74.098801 76.642799 83.410797 89.422798 91.966797 94.954803 97.786797 100.6188 107.2308 111.9828 115.9548 119.8188 125.5548 129.4548 136.0428 139.3308 141.8148 144.3588 151.11481 157.72681 163.7388 166.28281 172.0668 178.89481 184.6788 188.4828 194.4948 199.7988 205.81081 208.3548 214.13879">formato nativo de Illustrator, que aparece al</tspan><tspan
                   id="tspan46"
                   y="115.2"
                   x="0 6.7080002 13.32 19.104 22.908001 29.676001 35.459999 39.383999 41.928001 48.540001 55.200001 57.743999 63.528 67.332001 72.708 79.367996 82.176003 87.828003 94.416 96.959999 103.728 109.74 112.284 119.484 126.252 132.84 139.668 145.67999 148.224 151.21201 154.04401 156.87601 163.48801 168.24001 172.21201 176.076 181.812 185.71201 192.3 196.224 198.76801 204.07201 210.66 217.32001 219.864 225.87601 228.70799 231.252 236.556 243.144 253.15199 258.936 265.59601 272.36401">guardar un archivo de Adobe Illustrator con el comando</tspan><tspan
                   id="tspan48"
                   y="129.60001"
                   x="0 7.7519999 14.364 20.148001 23.952 30.719999 36.504002 40.428001 42.972 48.274799 54.862801 64.870796 71.170799">Guardar como.</tspan></text>
</g></g></g><g
           transform="matrix(1,0,0,-1,237.25415,313.81665)"
           id="g52"><g
             id="g54"><g
               clip-path="url(#clipPath60)"
               id="g56"><text
                 id="text82"
                 style="font-variant:normal;font-weight:normal;font-stretch:normal;font-size:12px;font-family:'Myriad Pro';-inkscape-font-specification:MyriadPro-Regular;writing-mode:lr-tb;fill:#2b2b2a;fill-opacity:1;fill-rule:nonzero;stroke:none"
                 transform="translate(-158.1694,-61.2783)"><tspan
                   id="tspan62"
                   y="0"
                   x="0 5.9039998 10.656 14.556 21.143999 23.688 29.700001 34.452 36.995998 43.608002 50.268002 52.812 58.596001 62.400002 67.776001 74.435997 77.244003 82.896004 89.484001 92.028 98.795998 104.808 107.352 114.552 121.32 127.908 134.73599 140.748 145.776 148.32001 151.308 154.14 156.972 163.584 168.336 172.308 176.172 181.908 185.808 192.396 196.32001 201.34801 203.892 210.60001 217.21201 222.996 226.8 233.56799 239.35201 246.12">Esto es un archivo de Adobe® Illustrator® guardado</tspan><tspan
                   id="tspan64"
                   y="14.4"
                   x="0 4.7519999 7.5599999 14.22 16.764 22.068001 28.656 35.268002 39.167999 45.18 51.84 54.647999 61.416 68.003998 70.547997 76.559998 83.220001 85.764 92.148003 100.14 104.82">sin contenido en PDF.</tspan><tspan
                   id="tspan66"
                   y="28.799999"
                   x="0 6.072 11.856 15.72 21.504 24.048 29.351999 35.939999 38.771999 45.360001 50.736 56.52 60.444 62.987999 69.575996 72.120003 77.903999 84.732002 88.704002 91.512001 95.435997 97.980003 103.992 108.744 112.644 118.656 121.2 126.984 130.7868 136.1628 142.8228 145.6308 151.28281 157.8708 160.41479 166.4268 173.08681 175.6308 182.2188 186.1908 190.05479 195.83881">Para colocar o abrir este archivo en otras</tspan><tspan
                   id="tspan68"
                   y="43.200001"
                   x="0 5.7839999 12.612 15.444 18.252001 23.628 29.412001 34.787998 37.596001 44.183998 50.844002 56.855999 61.476002 63.959999 66.503998 73.272003 79.283997 86.112 92.124001 94.667999 100.32 106.908 109.74 115.3908 121.4028 125.3268 127.8708 133.6548 136.19881 142.9068 149.5188 155.3028 159.1068 165.8748 171.6588 175.6308 178.4628 185.0508 187.5948 193.6068">aplicaciones, debe volver a guardarlo en</tspan><tspan
                   id="tspan70"
                   y="57.599998"
                   x="0 7.1999998 13.968 20.556 27.384001 33.396 35.939999 38.929199 41.7612 44.593201 51.2052 55.957199 59.929199 63.793201 69.529198 73.429199 80.017197 83.9412 86.485199 91.7892 98.377197 105.0372 107.5812 110.4132 116.1972 118.7412 125.3292 132.1572 137.5332 140.3412 146.9292 153.5892 156.13319 163.05721 166.86121 172.8732 178.6572 182.58121 185.1252 190.90919 194.7132 200.0892 206.74921 209.55721 215.2092 221.7972 224.3412 230.7252 238.71719">Adobe Illustrator con la opción Crear archivo PDF</tspan><tspan
                   id="tspan72"
                   y="72"
                   x="0 5.3039999 11.892 21.9 28.728001 34.464001 38.436001 41.243999 48.071999 50.903999 56.916 59.459999 65.244003 70.776001 74.748001 77.556 83.279999 89.064003 95.832001 101.616 104.1 106.644 112.548 117.3 121.272">compatible activada. Esta</tspan><tspan
                   id="tspan74"
                   y="86.400002"
                   x="0 6.5879998 13.416 18.792 21.6 28.188 34.848 37.391998 42.144001 48.155998 50.700001 56.712002 63.372002 68.748001 75.360001 81.372002 87.984001 91.956001 95.82 101.604 104.148 110.16 116.82 119.364 125.376 128.20799 130.752 136.12801 142.74001 148.524 155.29201 159.09599 165.68401 168.228 174.996 181.008 183.552 190.32001 193.12801 198.912 201.744 208.332 215.03999 221.62801 224.172 230.94 236.952 239.496 242.328 248.112 252.864 255.408 261.996 268.82401 274.20001 277.008 283.59601 290.25601 296.26801 301.01999 303.564 310.332">opción se encuentra en el cuadro de diálogo de las opciones de</tspan><tspan
                   id="tspan76"
                   y="100.8"
                   x="0 3.348 9.9359999 13.908 23.916 29.652 33.551998 40.139999 42.683998 49.344002 55.080002 59.051998 61.860001 67.510803 74.098801 76.642799 83.410797 89.422798 91.966797 94.954803 97.786797 100.6188 107.2308 111.9828 115.9548 119.8188 125.5548 129.4548 136.0428 139.3308 141.8148 144.3588 151.11481 157.72681 163.7388 166.28281 172.0668 178.89481 184.6788 188.4828 194.4948 199.7988 205.81081 208.3548 214.13879">formato nativo de Illustrator, que aparece al</tspan><tspan
                   id="tspan78"
                   y="115.2"
                   x="0 6.7080002 13.32 19.104 22.908001 29.676001 35.459999 39.383999 41.928001 48.540001 55.200001 57.743999 63.528 67.332001 72.708 79.367996 82.176003 87.828003 94.416 96.959999 103.728 109.74 112.284 119.484 126.252 132.84 139.668 145.67999 148.224 151.21201 154.04401 156.87601 163.48801 168.24001 172.21201 176.076 181.812 185.71201 192.3 196.224 198.76801 204.07201 210.66 217.32001 219.864 225.87601 228.70799 231.252 236.556 243.144 253.15199 258.936 265.59601 272.36401">guardar un archivo de Adobe Illustrator con el comando</tspan><tspan
                   id="tspan80"
                   y="129.60001"
                   x="0 7.7519999 14.364 20.148001 23.952 30.719999 36.504002 40.428001 42.972 48.274799 54.862801 64.870796 71.170799">Guardar como.</tspan></text>
</g></g></g><g
           transform="matrix(1,0,0,-1,237.25415,484.9895)"
           id="g84"><g
             id="g86"><g
               clip-path="url(#clipPath92)"
               id="g88"><text
                 id="text114"
                 style="font-variant:normal;font-weight:normal;font-stretch:normal;font-size:12px;font-family:'Myriad Pro';-inkscape-font-specification:MyriadPro-Regular;writing-mode:lr-tb;fill:#2b2b2a;fill-opacity:1;fill-rule:nonzero;stroke:none"
                 transform="translate(-158.1694,-61.2783)"><tspan
                   id="tspan94"
                   y="0"
                   x="0 5.9039998 10.656 14.556 21.143999 23.688 29.700001 34.452 36.995998 43.608002 50.268002 52.812 58.596001 62.400002 67.776001 74.435997 77.244003 82.896004 89.484001 92.028 98.795998 104.808 107.352 114.552 121.32 127.908 134.73599 140.748 145.776 148.32001 151.308 154.14 156.972 163.584 168.336 172.308 176.172 181.908 185.808 192.396 196.32001 201.34801 203.892 210.60001 217.21201 222.996 226.8 233.56799 239.35201 246.12">Esto es un archivo de Adobe® Illustrator® guardado</tspan><tspan
                   id="tspan96"
                   y="14.4"
                   x="0 4.7519999 7.5599999 14.22 16.764 22.068001 28.656 35.268002 39.167999 45.18 51.84 54.647999 61.416 68.003998 70.547997 76.559998 83.220001 85.764 92.148003 100.14 104.82">sin contenido en PDF.</tspan><tspan
                   id="tspan98"
                   y="28.799999"
                   x="0 6.072 11.856 15.72 21.504 24.048 29.351999 35.939999 38.771999 45.360001 50.736 56.52 60.444 62.987999 69.575996 72.120003 77.903999 84.732002 88.704002 91.512001 95.435997 97.980003 103.992 108.744 112.644 118.656 121.2 126.984 130.7868 136.1628 142.8228 145.6308 151.28281 157.8708 160.41479 166.4268 173.08681 175.6308 182.2188 186.1908 190.05479 195.83881">Para colocar o abrir este archivo en otras</tspan><tspan
                   id="tspan100"
                   y="43.200001"
                   x="0 5.7839999 12.612 15.444 18.252001 23.628 29.412001 34.787998 37.596001 44.183998 50.844002 56.855999 61.476002 63.959999 66.503998 73.272003 79.283997 86.112 92.124001 94.667999 100.32 106.908 109.74 115.3908 121.4028 125.3268 127.8708 133.6548 136.19881 142.9068 149.5188 155.3028 159.1068 165.8748 171.6588 175.6308 178.4628 185.0508 187.5948 193.6068">aplicaciones, debe volver a guardarlo en</tspan><tspan
                   id="tspan102"
                   y="57.599998"
                   x="0 7.1999998 13.968 20.556 27.384001 33.396 35.939999 38.929199 41.7612 44.593201 51.2052 55.957199 59.929199 63.793201 69.529198 73.429199 80.017197 83.9412 86.485199 91.7892 98.377197 105.0372 107.5812 110.4132 116.1972 118.7412 125.3292 132.1572 137.5332 140.3412 146.9292 153.5892 156.13319 163.05721 166.86121 172.8732 178.6572 182.58121 185.1252 190.90919 194.7132 200.0892 206.74921 209.55721 215.2092 221.7972 224.3412 230.7252 238.71719">Adobe Illustrator con la opción Crear archivo PDF</tspan><tspan
                   id="tspan104"
                   y="72"
                   x="0 5.3039999 11.892 21.9 28.728001 34.464001 38.436001 41.243999 48.071999 50.903999 56.916 59.459999 65.244003 70.776001 74.748001 77.556 83.279999 89.064003 95.832001 101.616 104.1 106.644 112.548 117.3 121.272">compatible activada. Esta</tspan><tspan
                   id="tspan106"
                   y="86.400002"
                   x="0 6.5879998 13.416 18.792 21.6 28.188 34.848 37.391998 42.144001 48.155998 50.700001 56.712002 63.372002 68.748001 75.360001 81.372002 87.984001 91.956001 95.82 101.604 104.148 110.16 116.82 119.364 125.376 128.20799 130.752 136.12801 142.74001 148.524 155.29201 159.09599 165.68401 168.228 174.996 181.008 183.552 190.32001 193.12801 198.912 201.744 208.332 215.03999 221.62801 224.172 230.94 236.952 239.496 242.328 248.112 252.864 255.408 261.996 268.82401 274.20001 277.008 283.59601 290.25601 296.26801 301.01999 303.564 310.332">opción se encuentra en el cuadro de diálogo de las opciones de</tspan><tspan
                   id="tspan108"
                   y="100.8"
                   x="0 3.348 9.9359999 13.908 23.916 29.652 33.551998 40.139999 42.683998 49.344002 55.080002 59.051998 61.860001 67.510803 74.098801 76.642799 83.410797 89.422798 91.966797 94.954803 97.786797 100.6188 107.2308 111.9828 115.9548 119.8188 125.5548 129.4548 136.0428 139.3308 141.8148 144.3588 151.11481 157.72681 163.7388 166.28281 172.0668 178.89481 184.6788 188.4828 194.4948 199.7988 205.81081 208.3548 214.13879">formato nativo de Illustrator, que aparece al</tspan><tspan
                   id="tspan110"
                   y="115.2"
                   x="0 6.7080002 13.32 19.104 22.908001 29.676001 35.459999 39.383999 41.928001 48.540001 55.200001 57.743999 63.528 67.332001 72.708 79.367996 82.176003 87.828003 94.416 96.959999 103.728 109.74 112.284 119.484 126.252 132.84 139.668 145.67999 148.224 151.21201 154.04401 156.87601 163.48801 168.24001 172.21201 176.076 181.812 185.71201 192.3 196.224 198.76801 204.07201 210.66 217.32001 219.864 225.87601 228.70799 231.252 236.556 243.144 253.15199 258.936 265.59601 272.36401">guardar un archivo de Adobe Illustrator con el comando</tspan><tspan
                   id="tspan112"
                   y="129.60001"
                   x="0 7.7519999 14.364 20.148001 23.952 30.719999 36.504002 40.428001 42.972 48.274799 54.862801 64.870796 71.170799">Guardar como.</tspan></text>
</g></g></g><g
           transform="matrix(1,0,0,-1,237.25415,656.16235)"
           id="g116"><g
             id="g118"><g
               clip-path="url(#clipPath124)"
               id="g120"><text
                 id="text146"
                 style="font-variant:normal;font-weight:normal;font-stretch:normal;font-size:12px;font-family:'Myriad Pro';-inkscape-font-specification:MyriadPro-Regular;writing-mode:lr-tb;fill:#2b2b2a;fill-opacity:1;fill-rule:nonzero;stroke:none"
                 transform="translate(-158.1694,-61.2783)"><tspan
                   id="tspan126"
                   y="0"
                   x="0 5.9039998 10.656 14.556 21.143999 23.688 29.700001 34.452 36.995998 43.608002 50.268002 52.812 58.596001 62.400002 67.776001 74.435997 77.244003 82.896004 89.484001 92.028 98.795998 104.808 107.352 114.552 121.32 127.908 134.73599 140.748 145.776 148.32001 151.308 154.14 156.972 163.584 168.336 172.308 176.172 181.908 185.808 192.396 196.32001 201.34801 203.892 210.60001 217.21201 222.996 226.8 233.56799 239.35201 246.12">Esto es un archivo de Adobe® Illustrator® guardado</tspan><tspan
                   id="tspan128"
                   y="14.4"
                   x="0 4.7519999 7.5599999 14.22 16.764 22.068001 28.656 35.268002 39.167999 45.18 51.84 54.647999 61.416 68.003998 70.547997 76.559998 83.220001 85.764 92.148003 100.14 104.82">sin contenido en PDF.</tspan><tspan
                   id="tspan130"
                   y="28.799999"
                   x="0 6.072 11.856 15.72 21.504 24.048 29.351999 35.939999 38.771999 45.360001 50.736 56.52 60.444 62.987999 69.575996 72.120003 77.903999 84.732002 88.704002 91.512001 95.435997 97.980003 103.992 108.744 112.644 118.656 121.2 126.984 130.7868 136.1628 142.8228 145.6308 151.28281 157.8708 160.41479 166.4268 173.08681 175.6308 182.2188 186.1908 190.05479 195.83881">Para colocar o abrir este archivo en otras</tspan><tspan
                   id="tspan132"
                   y="43.200001"
                   x="0 5.7839999 12.612 15.444 18.252001 23.628 29.412001 34.787998 37.596001 44.183998 50.844002 56.855999 61.476002 63.959999 66.503998 73.272003 79.283997 86.112 92.124001 94.667999 100.32 106.908 109.74 115.3908 121.4028 125.3268 127.8708 133.6548 136.19881 142.9068 149.5188 155.3028 159.1068 165.8748 171.6588 175.6308 178.4628 185.0508 187.5948 193.6068">aplicaciones, debe volver a guardarlo en</tspan><tspan
                   id="tspan134"
                   y="57.599998"
                   x="0 7.1999998 13.968 20.556 27.384001 33.396 35.939999 38.929199 41.7612 44.593201 51.2052 55.957199 59.929199 63.793201 69.529198 73.429199 80.017197 83.9412 86.485199 91.7892 98.377197 105.0372 107.5812 110.4132 116.1972 118.7412 125.3292 132.1572 137.5332 140.3412 146.9292 153.5892 156.13319 163.05721 166.86121 172.8732 178.6572 182.58121 185.1252 190.90919 194.7132 200.0892 206.74921 209.55721 215.2092 221.7972 224.3412 230.7252 238.71719">Adobe Illustrator con la opción Crear archivo PDF</tspan><tspan
                   id="tspan136"
                   y="72"
                   x="0 5.3039999 11.892 21.9 28.728001 34.464001 38.436001 41.243999 48.071999 50.903999 56.916 59.459999 65.244003 70.776001 74.748001 77.556 83.279999 89.064003 95.832001 101.616 104.1 106.644 112.548 117.3 121.272">compatible activada. Esta</tspan><tspan
                   id="tspan138"
                   y="86.400002"
                   x="0 6.5879998 13.416 18.792 21.6 28.188 34.848 37.391998 42.144001 48.155998 50.700001 56.712002 63.372002 68.748001 75.360001 81.372002 87.984001 91.956001 95.82 101.604 104.148 110.16 116.82 119.364 125.376 128.20799 130.752 136.12801 142.74001 148.524 155.29201 159.09599 165.68401 168.228 174.996 181.008 183.552 190.32001 193.12801 198.912 201.744 208.332 215.03999 221.62801 224.172 230.94 236.952 239.496 242.328 248.112 252.864 255.408 261.996 268.82401 274.20001 277.008 283.59601 290.25601 296.26801 301.01999 303.564 310.332">opción se encuentra en el cuadro de diálogo de las opciones de</tspan><tspan
                   id="tspan140"
                   y="100.8"
                   x="0 3.348 9.9359999 13.908 23.916 29.652 33.551998 40.139999 42.683998 49.344002 55.080002 59.051998 61.860001 67.510803 74.098801 76.642799 83.410797 89.422798 91.966797 94.954803 97.786797 100.6188 107.2308 111.9828 115.9548 119.8188 125.5548 129.4548 136.0428 139.3308 141.8148 144.3588 151.11481 157.72681 163.7388 166.28281 172.0668 178.89481 184.6788 188.4828 194.4948 199.7988 205.81081 208.3548 214.13879">formato nativo de Illustrator, que aparece al</tspan><tspan
                   id="tspan142"
                   y="115.2"
                   x="0 6.7080002 13.32 19.104 22.908001 29.676001 35.459999 39.383999 41.928001 48.540001 55.200001 57.743999 63.528 67.332001 72.708 79.367996 82.176003 87.828003 94.416 96.959999 103.728 109.74 112.284 119.484 126.252 132.84 139.668 145.67999 148.224 151.21201 154.04401 156.87601 163.48801 168.24001 172.21201 176.076 181.812 185.71201 192.3 196.224 198.76801 204.07201 210.66 217.32001 219.864 225.87601 228.70799 231.252 236.556 243.144 253.15199 258.936 265.59601 272.36401">guardar un archivo de Adobe Illustrator con el comando</tspan><tspan
                   id="tspan144"
                   y="129.60001"
                   x="0 7.7519999 14.364 20.148001 23.952 30.719999 36.504002 40.428001 42.972 48.274799 54.862801 64.870796 71.170799">Guardar como.</tspan></text>
</g></g></g><g
           transform="matrix(1,0,0,-1,632.67773,142.6438)"
           id="g148"><g
             id="g150"><g
               clip-path="url(#clipPath156)"
               id="g152"><text
                 id="text178"
                 style="font-variant:normal;font-weight:normal;font-stretch:normal;font-size:12px;font-family:'Myriad Pro';-inkscape-font-specification:MyriadPro-Regular;writing-mode:lr-tb;fill:#2b2b2a;fill-opacity:1;fill-rule:nonzero;stroke:none"
                 transform="translate(-158.1694,-61.2783)"><tspan
                   id="tspan158"
                   y="0"
                   x="0 5.9039998 10.656 14.556 21.143999 23.688 29.700001 34.452 36.995998 43.608002 50.268002 52.812 58.596001 62.400002 67.776001 74.435997 77.244003 82.896004 89.484001 92.028 98.795998 104.808 107.352 114.552 121.32 127.908 134.73599 140.748 145.776 148.32001 151.308 154.14 156.972 163.584 168.336 172.308 176.172 181.908 185.808 192.396 196.32001 201.34801 203.892 210.60001 217.21201 222.996 226.8 233.56799 239.35201 246.12">Esto es un archivo de Adobe® Illustrator® guardado</tspan><tspan
                   id="tspan160"
                   y="14.4"
                   x="0 4.7519999 7.5599999 14.22 16.764 22.068001 28.656 35.268002 39.167999 45.18 51.84 54.647999 61.416 68.003998 70.547997 76.559998 83.220001 85.764 92.148003 100.14 104.82">sin contenido en PDF.</tspan><tspan
                   id="tspan162"
                   y="28.799999"
                   x="0 6.072 11.856 15.72 21.504 24.048 29.351999 35.939999 38.771999 45.360001 50.736 56.52 60.444 62.987999 69.575996 72.120003 77.903999 84.732002 88.704002 91.512001 95.435997 97.980003 103.992 108.744 112.644 118.656 121.2 126.984 130.7868 136.1628 142.8228 145.6308 151.28281 157.8708 160.41479 166.4268 173.08681 175.6308 182.2188 186.1908 190.05479 195.83881">Para colocar o abrir este archivo en otras</tspan><tspan
                   id="tspan164"
                   y="43.200001"
                   x="0 5.7839999 12.612 15.444 18.252001 23.628 29.412001 34.787998 37.596001 44.183998 50.844002 56.855999 61.476002 63.959999 66.503998 73.272003 79.283997 86.112 92.124001 94.667999 100.32 106.908 109.74 115.3908 121.4028 125.3268 127.8708 133.6548 136.19881 142.9068 149.5188 155.3028 159.1068 165.8748 171.6588 175.6308 178.4628 185.0508 187.5948 193.6068">aplicaciones, debe volver a guardarlo en</tspan><tspan
                   id="tspan166"
                   y="57.599998"
                   x="0 7.1999998 13.968 20.556 27.384001 33.396 35.939999 38.929199 41.7612 44.593201 51.2052 55.957199 59.929199 63.793201 69.529198 73.429199 80.017197 83.9412 86.485199 91.7892 98.377197 105.0372 107.5812 110.4132 116.1972 118.7412 125.3292 132.1572 137.5332 140.3412 146.9292 153.5892 156.13319 163.05721 166.86121 172.8732 178.6572 182.58121 185.1252 190.90919 194.7132 200.0892 206.74921 209.55721 215.2092 221.7972 224.3412 230.7252 238.71719">Adobe Illustrator con la opción Crear archivo PDF</tspan><tspan
                   id="tspan168"
                   y="72"
                   x="0 5.3039999 11.892 21.9 28.728001 34.464001 38.436001 41.243999 48.071999 50.903999 56.916 59.459999 65.244003 70.776001 74.748001 77.556 83.279999 89.064003 95.832001 101.616 104.1 106.644 112.548 117.3 121.272">compatible activada. Esta</tspan><tspan
                   id="tspan170"
                   y="86.400002"
                   x="0 6.5879998 13.416 18.792 21.6 28.188 34.848 37.391998 42.144001 48.155998 50.700001 56.712002 63.372002 68.748001 75.360001 81.372002 87.984001 91.956001 95.82 101.604 104.148 110.16 116.82 119.364 125.376 128.20799 130.752 136.12801 142.74001 148.524 155.29201 159.09599 165.68401 168.228 174.996 181.008 183.552 190.32001 193.12801 198.912 201.744 208.332 215.03999 221.62801 224.172 230.94 236.952 239.496 242.328 248.112 252.864 255.408 261.996 268.82401 274.20001 277.008 283.59601 290.25601 296.26801 301.01999 303.564 310.332">opción se encuentra en el cuadro de diálogo de las opciones de</tspan><tspan
                   id="tspan172"
                   y="100.8"
                   x="0 3.348 9.9359999 13.908 23.916 29.652 33.551998 40.139999 42.683998 49.344002 55.080002 59.051998 61.860001 67.510803 74.098801 76.642799 83.410797 89.422798 91.966797 94.954803 97.786797 100.6188 107.2308 111.9828 115.9548 119.8188 125.5548 129.4548 136.0428 139.3308 141.8148 144.3588 151.11481 157.72681 163.7388 166.28281 172.0668 178.89481 184.6788 188.4828 194.4948 199.7988 205.81081 208.3548 214.13879">formato nativo de Illustrator, que aparece al</tspan><tspan
                   id="tspan174"
                   y="115.2"
                   x="0 6.7080002 13.32 19.104 22.908001 29.676001 35.459999 39.383999 41.928001 48.540001 55.200001 57.743999 63.528 67.332001 72.708 79.367996 82.176003 87.828003 94.416 96.959999 103.728 109.74 112.284 119.484 126.252 132.84 139.668 145.67999 148.224 151.21201 154.04401 156.87601 163.48801 168.24001 172.21201 176.076 181.812 185.71201 192.3 196.224 198.76801 204.07201 210.66 217.32001 219.864 225.87601 228.70799 231.252 236.556 243.144 253.15199 258.936 265.59601 272.36401">guardar un archivo de Adobe Illustrator con el comando</tspan><tspan
                   id="tspan176"
                   y="129.60001"
                   x="0 7.7519999 14.364 20.148001 23.952 30.719999 36.504002 40.428001 42.972 48.274799 54.862801 64.870796 71.170799">Guardar como.</tspan></text>
</g></g></g><g
           transform="matrix(1,0,0,-1,632.67773,313.81665)"
           id="g180"><g
             id="g182"><g
               clip-path="url(#clipPath188)"
               id="g184"><text
                 id="text210"
                 style="font-variant:normal;font-weight:normal;font-stretch:normal;font-size:12px;font-family:'Myriad Pro';-inkscape-font-specification:MyriadPro-Regular;writing-mode:lr-tb;fill:#2b2b2a;fill-opacity:1;fill-rule:nonzero;stroke:none"
                 transform="translate(-158.1694,-61.2783)"><tspan
                   id="tspan190"
                   y="0"
                   x="0 5.9039998 10.656 14.556 21.143999 23.688 29.700001 34.452 36.995998 43.608002 50.268002 52.812 58.596001 62.400002 67.776001 74.435997 77.244003 82.896004 89.484001 92.028 98.795998 104.808 107.352 114.552 121.32 127.908 134.73599 140.748 145.776 148.32001 151.308 154.14 156.972 163.584 168.336 172.308 176.172 181.908 185.808 192.396 196.32001 201.34801 203.892 210.60001 217.21201 222.996 226.8 233.56799 239.35201 246.12">Esto es un archivo de Adobe® Illustrator® guardado</tspan><tspan
                   id="tspan192"
                   y="14.4"
                   x="0 4.7519999 7.5599999 14.22 16.764 22.068001 28.656 35.268002 39.167999 45.18 51.84 54.647999 61.416 68.003998 70.547997 76.559998 83.220001 85.764 92.148003 100.14 104.82">sin contenido en PDF.</tspan><tspan
                   id="tspan194"
                   y="28.799999"
                   x="0 6.072 11.856 15.72 21.504 24.048 29.351999 35.939999 38.771999 45.360001 50.736 56.52 60.444 62.987999 69.575996 72.120003 77.903999 84.732002 88.704002 91.512001 95.435997 97.980003 103.992 108.744 112.644 118.656 121.2 126.984 130.7868 136.1628 142.8228 145.6308 151.28281 157.8708 160.41479 166.4268 173.08681 175.6308 182.2188 186.1908 190.05479 195.83881">Para colocar o abrir este archivo en otras</tspan><tspan
                   id="tspan196"
                   y="43.200001"
                   x="0 5.7839999 12.612 15.444 18.252001 23.628 29.412001 34.787998 37.596001 44.183998 50.844002 56.855999 61.476002 63.959999 66.503998 73.272003 79.283997 86.112 92.124001 94.667999 100.32 106.908 109.74 115.3908 121.4028 125.3268 127.8708 133.6548 136.19881 142.9068 149.5188 155.3028 159.1068 165.8748 171.6588 175.6308 178.4628 185.0508 187.5948 193.6068">aplicaciones, debe volver a guardarlo en</tspan><tspan
                   id="tspan198"
                   y="57.599998"
                   x="0 7.1999998 13.968 20.556 27.384001 33.396 35.939999 38.929199 41.7612 44.593201 51.2052 55.957199 59.929199 63.793201 69.529198 73.429199 80.017197 83.9412 86.485199 91.7892 98.377197 105.0372 107.5812 110.4132 116.1972 118.7412 125.3292 132.1572 137.5332 140.3412 146.9292 153.5892 156.13319 163.05721 166.86121 172.8732 178.6572 182.58121 185.1252 190.90919 194.7132 200.0892 206.74921 209.55721 215.2092 221.7972 224.3412 230.7252 238.71719">Adobe Illustrator con la opción Crear archivo PDF</tspan><tspan
                   id="tspan200"
                   y="72"
                   x="0 5.3039999 11.892 21.9 28.728001 34.464001 38.436001 41.243999 48.071999 50.903999 56.916 59.459999 65.244003 70.776001 74.748001 77.556 83.279999 89.064003 95.832001 101.616 104.1 106.644 112.548 117.3 121.272">compatible activada. Esta</tspan><tspan
                   id="tspan202"
                   y="86.400002"
                   x="0 6.5879998 13.416 18.792 21.6 28.188 34.848 37.391998 42.144001 48.155998 50.700001 56.712002 63.372002 68.748001 75.360001 81.372002 87.984001 91.956001 95.82 101.604 104.148 110.16 116.82 119.364 125.376 128.20799 130.752 136.12801 142.74001 148.524 155.29201 159.09599 165.68401 168.228 174.996 181.008 183.552 190.32001 193.12801 198.912 201.744 208.332 215.03999 221.62801 224.172 230.94 236.952 239.496 242.328 248.112 252.864 255.408 261.996 268.82401 274.20001 277.008 283.59601 290.25601 296.26801 301.01999 303.564 310.332">opción se encuentra en el cuadro de diálogo de las opciones de</tspan><tspan
                   id="tspan204"
                   y="100.8"
                   x="0 3.348 9.9359999 13.908 23.916 29.652 33.551998 40.139999 42.683998 49.344002 55.080002 59.051998 61.860001 67.510803 74.098801 76.642799 83.410797 89.422798 91.966797 94.954803 97.786797 100.6188 107.2308 111.9828 115.9548 119.8188 125.5548 129.4548 136.0428 139.3308 141.8148 144.3588 151.11481 157.72681 163.7388 166.28281 172.0668 178.89481 184.6788 188.4828 194.4948 199.7988 205.81081 208.3548 214.13879">formato nativo de Illustrator, que aparece al</tspan><tspan
                   id="tspan206"
                   y="115.2"
                   x="0 6.7080002 13.32 19.104 22.908001 29.676001 35.459999 39.383999 41.928001 48.540001 55.200001 57.743999 63.528 67.332001 72.708 79.367996 82.176003 87.828003 94.416 96.959999 103.728 109.74 112.284 119.484 126.252 132.84 139.668 145.67999 148.224 151.21201 154.04401 156.87601 163.48801 168.24001 172.21201 176.076 181.812 185.71201 192.3 196.224 198.76801 204.07201 210.66 217.32001 219.864 225.87601 228.70799 231.252 236.556 243.144 253.15199 258.936 265.59601 272.36401">guardar un archivo de Adobe Illustrator con el comando</tspan><tspan
                   id="tspan208"
                   y="129.60001"
                   x="0 7.7519999 14.364 20.148001 23.952 30.719999 36.504002 40.428001 42.972 48.274799 54.862801 64.870796 71.170799">Guardar como.</tspan></text>
</g></g></g><g
           transform="matrix(1,0,0,-1,632.67773,484.9895)"
           id="g212"><g
             id="g214"><g
               clip-path="url(#clipPath220)"
               id="g216"><text
                 id="text242"
                 style="font-variant:normal;font-weight:normal;font-stretch:normal;font-size:12px;font-family:'Myriad Pro';-inkscape-font-specification:MyriadPro-Regular;writing-mode:lr-tb;fill:#2b2b2a;fill-opacity:1;fill-rule:nonzero;stroke:none"
                 transform="translate(-158.1694,-61.2783)"><tspan
                   id="tspan222"
                   y="0"
                   x="0 5.9039998 10.656 14.556 21.143999 23.688 29.700001 34.452 36.995998 43.608002 50.268002 52.812 58.596001 62.400002 67.776001 74.435997 77.244003 82.896004 89.484001 92.028 98.795998 104.808 107.352 114.552 121.32 127.908 134.73599 140.748 145.776 148.32001 151.308 154.14 156.972 163.584 168.336 172.308 176.172 181.908 185.808 192.396 196.32001 201.34801 203.892 210.60001 217.21201 222.996 226.8 233.56799 239.35201 246.12">Esto es un archivo de Adobe® Illustrator® guardado</tspan><tspan
                   id="tspan224"
                   y="14.4"
                   x="0 4.7519999 7.5599999 14.22 16.764 22.068001 28.656 35.268002 39.167999 45.18 51.84 54.647999 61.416 68.003998 70.547997 76.559998 83.220001 85.764 92.148003 100.14 104.82">sin contenido en PDF.</tspan><tspan
                   id="tspan226"
                   y="28.799999"
                   x="0 6.072 11.856 15.72 21.504 24.048 29.351999 35.939999 38.771999 45.360001 50.736 56.52 60.444 62.987999 69.575996 72.120003 77.903999 84.732002 88.704002 91.512001 95.435997 97.980003 103.992 108.744 112.644 118.656 121.2 126.984 130.7868 136.1628 142.8228 145.6308 151.28281 157.8708 160.41479 166.4268 173.08681 175.6308 182.2188 186.1908 190.05479 195.83881">Para colocar o abrir este archivo en otras</tspan><tspan
                   id="tspan228"
                   y="43.200001"
                   x="0 5.7839999 12.612 15.444 18.252001 23.628 29.412001 34.787998 37.596001 44.183998 50.844002 56.855999 61.476002 63.959999 66.503998 73.272003 79.283997 86.112 92.124001 94.667999 100.32 106.908 109.74 115.3908 121.4028 125.3268 127.8708 133.6548 136.19881 142.9068 149.5188 155.3028 159.1068 165.8748 171.6588 175.6308 178.4628 185.0508 187.5948 193.6068">aplicaciones, debe volver a guardarlo en</tspan><tspan
                   id="tspan230"
                   y="57.599998"
                   x="0 7.1999998 13.968 20.556 27.384001 33.396 35.939999 38.929199 41.7612 44.593201 51.2052 55.957199 59.929199 63.793201 69.529198 73.429199 80.017197 83.9412 86.485199 91.7892 98.377197 105.0372 107.5812 110.4132 116.1972 118.7412 125.3292 132.1572 137.5332 140.3412 146.9292 153.5892 156.13319 163.05721 166.86121 172.8732 178.6572 182.58121 185.1252 190.90919 194.7132 200.0892 206.74921 209.55721 215.2092 221.7972 224.3412 230.7252 238.71719">Adobe Illustrator con la opción Crear archivo PDF</tspan><tspan
                   id="tspan232"
                   y="72"
                   x="0 5.3039999 11.892 21.9 28.728001 34.464001 38.436001 41.243999 48.071999 50.903999 56.916 59.459999 65.244003 70.776001 74.748001 77.556 83.279999 89.064003 95.832001 101.616 104.1 106.644 112.548 117.3 121.272">compatible activada. Esta</tspan><tspan
                   id="tspan234"
                   y="86.400002"
                   x="0 6.5879998 13.416 18.792 21.6 28.188 34.848 37.391998 42.144001 48.155998 50.700001 56.712002 63.372002 68.748001 75.360001 81.372002 87.984001 91.956001 95.82 101.604 104.148 110.16 116.82 119.364 125.376 128.20799 130.752 136.12801 142.74001 148.524 155.29201 159.09599 165.68401 168.228 174.996 181.008 183.552 190.32001 193.12801 198.912 201.744 208.332 215.03999 221.62801 224.172 230.94 236.952 239.496 242.328 248.112 252.864 255.408 261.996 268.82401 274.20001 277.008 283.59601 290.25601 296.26801 301.01999 303.564 310.332">opción se encuentra en el cuadro de diálogo de las opciones de</tspan><tspan
                   id="tspan236"
                   y="100.8"
                   x="0 3.348 9.9359999 13.908 23.916 29.652 33.551998 40.139999 42.683998 49.344002 55.080002 59.051998 61.860001 67.510803 74.098801 76.642799 83.410797 89.422798 91.966797 94.954803 97.786797 100.6188 107.2308 111.9828 115.9548 119.8188 125.5548 129.4548 136.0428 139.3308 141.8148 144.3588 151.11481 157.72681 163.7388 166.28281 172.0668 178.89481 184.6788 188.4828 194.4948 199.7988 205.81081 208.3548 214.13879">formato nativo de Illustrator, que aparece al</tspan><tspan
                   id="tspan238"
                   y="115.2"
                   x="0 6.7080002 13.32 19.104 22.908001 29.676001 35.459999 39.383999 41.928001 48.540001 55.200001 57.743999 63.528 67.332001 72.708 79.367996 82.176003 87.828003 94.416 96.959999 103.728 109.74 112.284 119.484 126.252 132.84 139.668 145.67999 148.224 151.21201 154.04401 156.87601 163.48801 168.24001 172.21201 176.076 181.812 185.71201 192.3 196.224 198.76801 204.07201 210.66 217.32001 219.864 225.87601 228.70799 231.252 236.556 243.144 253.15199 258.936 265.59601 272.36401">guardar un archivo de Adobe Illustrator con el comando</tspan><tspan
                   id="tspan240"
                   y="129.60001"
                   x="0 7.7519999 14.364 20.148001 23.952 30.719999 36.504002 40.428001 42.972 48.274799 54.862801 64.870796 71.170799">Guardar como.</tspan></text>
</g></g></g><g
           transform="matrix(1,0,0,-1,632.67773,656.16235)"
           id="g244"><g
             id="g246"><g
               clip-path="url(#clipPath252)"
               id="g248"><text
                 id="text274"
                 style="font-variant:normal;font-weight:normal;font-stretch:normal;font-size:12px;font-family:'Myriad Pro';-inkscape-font-specification:MyriadPro-Regular;writing-mode:lr-tb;fill:#2b2b2a;fill-opacity:1;fill-rule:nonzero;stroke:none"
                 transform="translate(-158.1694,-61.2783)"><tspan
                   id="tspan254"
                   y="0"
                   x="0 5.9039998 10.656 14.556 21.143999 23.688 29.700001 34.452 36.995998 43.608002 50.268002 52.812 58.596001 62.400002 67.776001 74.435997 77.244003 82.896004 89.484001 92.028 98.795998 104.808 107.352 114.552 121.32 127.908 134.73599 140.748 145.776 148.32001 151.308 154.14 156.972 163.584 168.336 172.308 176.172 181.908 185.808 192.396 196.32001 201.34801 203.892 210.60001 217.21201 222.996 226.8 233.56799 239.35201 246.12">Esto es un archivo de Adobe® Illustrator® guardado</tspan><tspan
                   id="tspan256"
                   y="14.4"
                   x="0 4.7519999 7.5599999 14.22 16.764 22.068001 28.656 35.268002 39.167999 45.18 51.84 54.647999 61.416 68.003998 70.547997 76.559998 83.220001 85.764 92.148003 100.14 104.82">sin contenido en PDF.</tspan><tspan
                   id="tspan258"
                   y="28.799999"
                   x="0 6.072 11.856 15.72 21.504 24.048 29.351999 35.939999 38.771999 45.360001 50.736 56.52 60.444 62.987999 69.575996 72.120003 77.903999 84.732002 88.704002 91.512001 95.435997 97.980003 103.992 108.744 112.644 118.656 121.2 126.984 130.7868 136.1628 142.8228 145.6308 151.28281 157.8708 160.41479 166.4268 173.08681 175.6308 182.2188 186.1908 190.05479 195.83881">Para colocar o abrir este archivo en otras</tspan><tspan
                   id="tspan260"
                   y="43.200001"
                   x="0 5.7839999 12.612 15.444 18.252001 23.628 29.412001 34.787998 37.596001 44.183998 50.844002 56.855999 61.476002 63.959999 66.503998 73.272003 79.283997 86.112 92.124001 94.667999 100.32 106.908 109.74 115.3908 121.4028 125.3268 127.8708 133.6548 136.19881 142.9068 149.5188 155.3028 159.1068 165.8748 171.6588 175.6308 178.4628 185.0508 187.5948 193.6068">aplicaciones, debe volver a guardarlo en</tspan><tspan
                   id="tspan262"
                   y="57.599998"
                   x="0 7.1999998 13.968 20.556 27.384001 33.396 35.939999 38.929199 41.7612 44.593201 51.2052 55.957199 59.929199 63.793201 69.529198 73.429199 80.017197 83.9412 86.485199 91.7892 98.377197 105.0372 107.5812 110.4132 116.1972 118.7412 125.3292 132.1572 137.5332 140.3412 146.9292 153.5892 156.13319 163.05721 166.86121 172.8732 178.6572 182.58121 185.1252 190.90919 194.7132 200.0892 206.74921 209.55721 215.2092 221.7972 224.3412 230.7252 238.71719">Adobe Illustrator con la opción Crear archivo PDF</tspan><tspan
                   id="tspan264"
                   y="72"
                   x="0 5.3039999 11.892 21.9 28.728001 34.464001 38.436001 41.243999 48.071999 50.903999 56.916 59.459999 65.244003 70.776001 74.748001 77.556 83.279999 89.064003 95.832001 101.616 104.1 106.644 112.548 117.3 121.272">compatible activada. Esta</tspan><tspan
                   id="tspan266"
                   y="86.400002"
                   x="0 6.5879998 13.416 18.792 21.6 28.188 34.848 37.391998 42.144001 48.155998 50.700001 56.712002 63.372002 68.748001 75.360001 81.372002 87.984001 91.956001 95.82 101.604 104.148 110.16 116.82 119.364 125.376 128.20799 130.752 136.12801 142.74001 148.524 155.29201 159.09599 165.68401 168.228 174.996 181.008 183.552 190.32001 193.12801 198.912 201.744 208.332 215.03999 221.62801 224.172 230.94 236.952 239.496 242.328 248.112 252.864 255.408 261.996 268.82401 274.20001 277.008 283.59601 290.25601 296.26801 301.01999 303.564 310.332">opción se encuentra en el cuadro de diálogo de las opciones de</tspan><tspan
                   id="tspan268"
                   y="100.8"
                   x="0 3.348 9.9359999 13.908 23.916 29.652 33.551998 40.139999 42.683998 49.344002 55.080002 59.051998 61.860001 67.510803 74.098801 76.642799 83.410797 89.422798 91.966797 94.954803 97.786797 100.6188 107.2308 111.9828 115.9548 119.8188 125.5548 129.4548 136.0428 139.3308 141.8148 144.3588 151.11481 157.72681 163.7388 166.28281 172.0668 178.89481 184.6788 188.4828 194.4948 199.7988 205.81081 208.3548 214.13879">formato nativo de Illustrator, que aparece al</tspan><tspan
                   id="tspan270"
                   y="115.2"
                   x="0 6.7080002 13.32 19.104 22.908001 29.676001 35.459999 39.383999 41.928001 48.540001 55.200001 57.743999 63.528 67.332001 72.708 79.367996 82.176003 87.828003 94.416 96.959999 103.728 109.74 112.284 119.484 126.252 132.84 139.668 145.67999 148.224 151.21201 154.04401 156.87601 163.48801 168.24001 172.21201 176.076 181.812 185.71201 192.3 196.224 198.76801 204.07201 210.66 217.32001 219.864 225.87601 228.70799 231.252 236.556 243.144 253.15199 258.936 265.59601 272.36401">guardar un archivo de Adobe Illustrator con el comando</tspan><tspan
                   id="tspan272"
                   y="129.60001"
                   x="0 7.7519999 14.364 20.148001 23.952 30.719999 36.504002 40.428001 42.972 48.274799 54.862801 64.870796 71.170799">Guardar como.</tspan></text>
</g></g></g></g></g></g></svg>